<?xml version="1.0" encoding="UTF-8"?>
<svg width="44px" height="44px" viewBox="0 0 44 44" version="1.1" xmlns="http://www.w3.org/2000/svg" xmlns:xlink="http://www.w3.org/1999/xlink">
    <!-- Generator: Sketch 55 (78076) - https://sketchapp.com -->
    <title>icons/appheader/hamburgermenu</title>
    <desc>Created with Sketch.</desc>
    <g id="icons/appheader/hamburgermenu" stroke="none" stroke-width="1" fill="none" fill-rule="evenodd">
        <path d="M3.92854948,13.1650452 L40.0712749,13.1650452 C42.2409061,13.1650452 44,11.3670374 44,9.14918925 C44,6.93134114 42.2410817,5.13333333 40.0712749,5.13333333 L3.92854948,5.13333333 C1.75891835,5.13351283 0,6.93134114 0,9.14936875 C0,11.3672169 1.75891835,13.1650452 3.92854948,13.1650452 Z M40.0712749,17.9841441 L3.92854948,17.9841441 C1.75891835,17.9841441 0,19.7821519 0,22 C0,24.2180276 1.75891835,26.0158559 3.92854948,26.0158559 L40.0712749,26.0158559 C42.2409061,26.0158559 44,24.2180276 44,22 C44,19.7821519 42.2409061,17.9841441 40.0712749,17.9841441 Z M40.0712749,30.8349548 L3.92854948,30.8349548 C1.75891835,30.8349548 0,32.6327831 0,34.8508107 C0,37.0686589 1.75891835,38.8666667 3.92854948,38.8666667 L40.0712749,38.8666667 C42.2409061,38.8666667 44,37.0686589 44,34.8508107 C44,32.6327831 42.2409061,30.8349548 40.0712749,30.8349548 Z" id="Shape" fill="#000000"></path>
    </g>
</svg>