<?xml version="1.0" encoding="UTF-8"?>
<svg width="44px" height="66px" viewBox="0 0 44 66" version="1.1" xmlns="http://www.w3.org/2000/svg" xmlns:xlink="http://www.w3.org/1999/xlink">
    <!-- Generator: Sketch 55 (78076) - https://sketchapp.com -->
    <title>icons/pins/4</title>
    <desc>Created with Sketch.</desc>
    <g id="icons/pins/4" stroke="none" stroke-width="1" fill="none" fill-rule="evenodd">
        <path d="M0,22.3542 C0,22.61952 0.00779439335,22.88814 0.0194859834,23.16006 C0.101976646,25.50834 0.537813141,27.76356 1.27893004,29.87358 C5.97245391,45.5499 22.0003248,66 22.0003248,66 C22.0003248,66 38.026247,45.55188 42.7204204,29.87556 C43.4628364,27.76554 43.8980234,25.50834 43.9798645,23.16006 C43.9928551,22.88814 44,22.61952 44,22.3542 C44.0006495,10.0089 34.1504849,0 22.0003248,0 C9.8501646,0 0,10.0089 0,22.3542 Z" id="Path" fill="#0CF2D1"></path>
        <path d="M11,22.4996534 C11,16.149471 15.9254325,11 22,11 C28.0752306,11 33,16.149471 33,22.4996534 C33,28.850529 28.0752306,34 22,34 C15.9254325,34 11,28.850529 11,22.4996534 Z" id="Path" fill="#FFFFFF"></path>
    </g>
</svg>