<?xml version="1.0" encoding="UTF-8"?>
<svg width="44px" height="66px" viewBox="0 0 44 66" version="1.1" xmlns="http://www.w3.org/2000/svg" xmlns:xlink="http://www.w3.org/1999/xlink">
    <!-- Generator: Sketch 55 (78076) - https://sketchapp.com -->
    <title>icons/pins/Free</title>
    <desc>Created with Sketch.</desc>
    <g id="icons/pins/Free" stroke="none" stroke-width="1" fill="none" fill-rule="evenodd">
        <path d="M0,22.3542 C0,22.61952 0.00779439335,22.88814 0.0194859834,23.16006 C0.101976646,25.50834 0.537813141,27.76356 1.27893004,29.87358 C5.97245391,45.5499 22.0003248,66 22.0003248,66 C22.0003248,66 38.026247,45.55188 42.7204204,29.87556 C43.4628364,27.76554 43.8980234,25.50834 43.9798645,23.16006 C43.9928551,22.88814 44,22.61952 44,22.3542 C44.0006495,10.0089 34.1504849,0 22.0003248,0 C9.8501646,0 0,10.0089 0,22.3542 Z" id="Path" fill="#FF0505"></path>
        <g id="icons/bikerack" transform="translate(1.000000, 1.000000)">
            <g id="Group-5">
                <path d="M42,21 C42,9.40201964 32.5979804,0 21,0 C9.40201964,0 0,9.40201964 0,21 C0,32.5979804 9.40201964,42 21,42 C32.5979804,42 42,32.5979804 42,21" id="Background" fill="#FF0505"></path>
                <path d="M34.6191334,29.7055258 L34.6191334,13.4204417 C34.6191334,12.31499 33.7504146,11.4190611 32.6789042,11.4190611 C31.6069855,11.4190611 30.7386749,12.31499 30.7386749,13.4204417 L30.7386749,26.7383294 C30.7386749,28.8343155 29.0906944,30.5337023 27.0583551,30.5337023 C25.0252676,30.5337023 23.3781034,28.8343155 23.3977635,26.8760375 L23.3977635,13.5581498 C23.3781034,12.31499 22.5093846,11.4190611 21.437466,11.4190611 C20.3655473,11.4190611 19.4972368,12.31499 19.4972368,13.4204417 L19.4972368,26.7383294 C19.4972368,28.8343155 17.8493243,30.5337023 15.816917,30.5337023 C13.7841695,30.5337023 12.1366652,28.8343155 12.1366652,26.7383294 L12.1366652,13.4204417 C12.1366652,12.31499 11.2680145,11.4190611 10.196436,11.4190611 C9.12451732,11.4190611 8.24246508,12.2940583 8.24246508,13.3995101 L8.25620675,29.7055258 L10.1297004,29.7055258 C10.2775935,29.7055258 10.3969828,29.8287057 10.3969828,29.9819748 L10.3969828,31.2234821 C10.3969828,31.3756496 10.2768452,31.5 10.1297004,31.5 L4.64228237,31.5 C4.49479747,31.5 4.375,31.376407 4.375,31.2234821 L4.375,29.9819748 C4.375,29.82905 4.49554578,29.7055258 4.64228237,29.7055258 L6.51618421,29.7055258 L6.51618421,13.4204417 C6.51618421,11.3241113 8.16368855,9.625 10.196436,9.625 C12.2288433,9.625 13.8766877,11.3244556 13.8766877,13.4204417 L13.8766877,26.7383294 C13.8766877,27.8437812 14.7449983,28.7392969 15.816917,28.7392969 C16.8884955,28.7392969 17.7572142,27.8434369 17.7572142,26.7383294 L17.7572142,13.4204417 C17.7572142,11.3241113 19.4047186,9.625 21.437466,9.625 C23.4702134,9.625 25.1177178,11.3244556 25.1177178,13.4204417 L25.1177178,26.7383294 C25.1177178,27.8437812 25.9860964,28.7392969 27.0583551,28.7392969 C28.1298656,28.7392969 28.9986524,27.8434369 28.9986524,26.7383294 L28.9986524,13.4204417 C28.9986524,11.3241113 30.6457486,9.625 32.6789042,9.625 C34.7112434,9.625 36.3591559,11.3244556 36.3591559,13.4204417 L36.3591559,29.7055258 L38.2326496,29.7055258 C38.3805427,29.7055258 38.5,29.8287057 38.5,29.9819748 L38.5,31.2234821 C38.5,31.3756496 38.3797944,31.5 38.2326496,31.5 L32.7456397,31.5 C32.5977467,31.5 32.4782893,31.376407 32.4782893,31.2234821 L32.4782893,29.9819748 C32.4782893,29.82905 32.598495,29.7055258 32.7456397,29.7055258 L34.6191334,29.7055258 Z" id="Bikerack" fill="#FFFFFF"></path>
            </g>
        </g>
    </g>
</svg>