<?xml version="1.0" encoding="UTF-8"?>
<svg width="44px" height="44px" viewBox="0 0 44 44" version="1.1" xmlns="http://www.w3.org/2000/svg" xmlns:xlink="http://www.w3.org/1999/xlink">
    <!-- Generator: Sketch 55 (78076) - https://sketchapp.com -->
    <title>icons/addspotv3</title>
    <desc>Created with Sketch.</desc>
    <g id="icons/addspotv3" stroke="none" stroke-width="1" fill="none" fill-rule="evenodd">
        <path d="M41.0502586,10.9568061 C39.0828947,7.58637643 36.4142913,4.91778517 33.043746,2.95053063 C29.6725986,0.983376431 25.9925205,0 22.0007023,0 C18.0092855,0 14.3281038,0.983376431 10.9575584,2.95053063 C7.58681236,4.91748416 4.91820893,7.58607542 2.95084509,10.9568061 C0.983380916,14.3277374 0,18.0089024 0,22 C0,25.9912983 0.983681921,29.6718612 2.95054409,33.0429932 C4.91780759,36.4134229 7.58641103,39.0820142 10.9571571,41.0494694 C14.3281038,43.0165232 18.0089845,44 22.000301,44 C25.9916175,44 29.6728996,43.0165232 33.0436456,41.0494694 C36.414191,39.0827165 39.0826941,36.4134229 41.0498573,33.0429932 C43.0167194,29.6721622 44,25.9910976 44,22 C44.0001003,18.0085011 43.0167194,14.3272357 41.0502586,10.9568061 Z" id="Path" fill="#009887"></path>
        <path d="M24,20 L33,20 C34.1045695,20 35,20.8954305 35,22 C35,23.1045695 34.1045695,24 33,24 L24,24 L24,33 C24,34.1045695 23.1045695,35 22,35 C20.8954305,35 20,34.1045695 20,33 L20,24 L11,24 C9.8954305,24 9,23.1045695 9,22 C9,20.8954305 9.8954305,20 11,20 L20,20 L20,11 C20,9.8954305 20.8954305,9 22,9 C23.1045695,9 24,9.8954305 24,11 L24,20 Z" id="Combined-Shape" fill="#FFFFFF"></path>
    </g>
</svg>