<?xml version="1.0" encoding="UTF-8"?>
<svg width="44px" height="44px" viewBox="0 0 44 44" version="1.1" xmlns="http://www.w3.org/2000/svg" xmlns:xlink="http://www.w3.org/1999/xlink">
    <!-- Generator: Sketch 55 (78076) - https://sketchapp.com -->
    <title>icons/bikerack</title>
    <desc>Created with Sketch.</desc>
    <g id="icons/bikerack" stroke="none" stroke-width="1" fill="none" fill-rule="evenodd">
        <g id="Group-5">
            <path d="M44,22 C44,9.84973486 34.1502651,0 22,0 C9.84973486,0 0,9.84973486 0,22 C0,34.1502651 9.84973486,44 22,44 C34.1502651,44 44,34.1502651 44,22" id="Background" fill="#000000"></path>
            <path d="M36.2676635,31.1200746 L36.2676635,14.0595104 C36.2676635,12.9014181 35.3575772,11.9628259 34.2350425,11.9628259 C33.1120801,11.9628259 32.2024214,12.9014181 32.2024214,14.0595104 L32.2024214,28.0115832 C32.2024214,30.2073782 30.4759656,31.9876881 28.3468482,31.9876881 C26.216947,31.9876881 24.4913464,30.2073782 24.5119427,28.1558488 L24.5119427,14.203776 C24.4913464,12.9014181 23.5812601,11.9628259 22.4582977,11.9628259 C21.3353353,11.9628259 20.4256766,12.9014181 20.4256766,14.0595104 L20.4256766,28.0115832 C20.4256766,30.2073782 18.6992921,31.9876881 16.5701035,31.9876881 C14.4405586,31.9876881 12.7146016,30.2073782 12.7146016,28.0115832 L12.7146016,14.0595104 C12.7146016,12.9014181 11.8045866,11.9628259 10.6819805,11.9628259 C9.55901815,11.9628259 8.63496342,12.8794897 8.63496342,14.037582 L8.64935946,31.1200746 L10.6120671,31.1200746 C10.7670027,31.1200746 10.8920772,31.2491202 10.8920772,31.4096879 L10.8920772,32.7103146 C10.8920772,32.8697281 10.7662188,33 10.6120671,33 L4.86334344,33 C4.70883545,33 4.58333333,32.8705216 4.58333333,32.7103146 L4.58333333,31.4096879 C4.58333333,31.2494809 4.70961939,31.1200746 4.86334344,31.1200746 L6.82647869,31.1200746 L6.82647869,14.0595104 C6.82647869,11.8633547 8.55243562,10.0833333 10.6819805,10.0833333 C12.8111691,10.0833333 14.5374824,11.8637154 14.5374824,14.0595104 L14.5374824,28.0115832 C14.5374824,29.1696755 15.4471411,30.1078349 16.5701035,30.1078349 C17.6927095,30.1078349 18.6027958,29.1693149 18.6027958,28.0115832 L18.6027958,14.0595104 C18.6027958,11.8633547 20.3287528,10.0833333 22.4582977,10.0833333 C24.5878426,10.0833333 26.3137996,11.8637154 26.3137996,14.0595104 L26.3137996,28.0115832 C26.3137996,29.1696755 27.2235295,30.1078349 28.3468482,30.1078349 C29.469383,30.1078349 30.3795406,29.1693149 30.3795406,28.0115832 L30.3795406,14.0595104 C30.3795406,11.8633547 32.1050699,10.0833333 34.2350425,10.0833333 C36.3641598,10.0833333 38.0905443,11.8637154 38.0905443,14.0595104 L38.0905443,31.1200746 L40.053252,31.1200746 C40.2081876,31.1200746 40.3333333,31.2491202 40.3333333,31.4096879 L40.3333333,32.7103146 C40.3333333,32.8697281 40.2074036,33 40.053252,33 L34.3049559,33 C34.1500203,33 34.0248745,32.8705216 34.0248745,32.7103146 L34.0248745,31.4096879 C34.0248745,31.2494809 34.1508042,31.1200746 34.3049559,31.1200746 L36.2676635,31.1200746 Z" id="Bikerack" fill="#FFFFFF"></path>
        </g>
    </g>
</svg>