<?xml version="1.0" encoding="UTF-8"?>
<svg width="44px" height="44px" viewBox="0 0 44 44" version="1.1" xmlns="http://www.w3.org/2000/svg" xmlns:xlink="http://www.w3.org/1999/xlink">
    <!-- Generator: Sketch 55 (78076) - https://sketchapp.com -->
    <title>icons/bikelockerlogo</title>
    <desc>Created with Sketch.</desc>
    <g id="icons/bikelockerlogo" stroke="none" stroke-width="1" fill="none" fill-rule="evenodd">
        <rect id="Rectangle" x="0" y="0" width="44" height="44"></rect>
        <path d="M32.9553547,7.55254492 L10.3108793,7.55254492 L10.3108793,24.9672957 C10.3108793,31.2975265 15.3899533,36.447014 21.6329007,36.447014 C27.8762807,36.447014 32.9553547,31.2975265 32.9553547,24.9672957 L32.9553547,7.55254492 Z M43.2666667,7.55254492 L38.958172,7.55254492 L38.958172,24.9672957 C38.958172,34.653184 31.1866133,42.5333333 21.633766,42.5333333 C12.080486,42.5333333 4.30849467,34.653184 4.30849467,24.9672957 L4.30849467,7.55254492 L0,7.55254492 L0,1.46666667 L43.2666667,1.46666667 L43.2666667,7.55254492 Z M21.6333333,13.5285968 C23.875412,13.5285968 25.6930447,15.3713856 25.6930447,17.6446583 C25.6930447,19.2483873 24.786608,20.634228 23.4669747,21.3139162 L24.8251153,27.9506904 L18.4411187,27.9506904 L19.7992593,21.3139162 C18.479626,20.634228 17.5731893,19.2483873 17.5731893,17.6446583 C17.5731893,15.3713856 19.390822,13.5285968 21.6333333,13.5285968 Z" id="Bike-Locker-Logo" fill="#000000"></path>
    </g>
</svg>