<?xml version="1.0" encoding="UTF-8"?>
<svg width="44px" height="44px" viewBox="0 0 44 44" version="1.1" xmlns="http://www.w3.org/2000/svg" xmlns:xlink="http://www.w3.org/1999/xlink">
    <!-- Generator: Sketch 55 (78076) - https://sketchapp.com -->
    <title>icons/caution</title>
    <desc>Created with Sketch.</desc>
    <g id="icons/caution" stroke="none" stroke-width="1" fill="none" fill-rule="evenodd">
        <path d="M5.09461571,42 C3.25569506,42 1.60890709,41.0361283 0.689521007,39.4214963 C-0.229865081,37.8070149 -0.229865081,35.8791209 0.689669486,34.2646395 L17.5949703,4.57850369 C18.5143563,2.96387174 20.1611443,2 21.9999165,2 C23.8388371,2 25.4856251,2.96387174 26.4050112,4.57850369 L43.3104604,34.2646395 C44.2298465,35.8792714 44.2298465,37.8070149 43.3104604,39.4214963 C42.3909259,41.0361283 40.7442864,42 38.9053657,42 L5.09461571,42 Z" id="Fill-1" fill="#FF0505"></path>
        <path d="M22,40 C19.7943607,40 18,37.9811967 18,35.5 C18,33.0188033 19.7943607,31 22,31 C24.2056393,31 26,33.0188033 26,35.5 C26,37.9811967 24.2056393,40 22,40" id="Fill-6" fill="#FFFFFF"></path>
        <path d="M19.9323279,24.5424313 C19.912918,24.4361103 18,13.976513 18,13.3880788 C18,10.968449 19.7943607,9 22,9 C24.2056393,9 26,10.968449 26,13.3880788 C26,13.9864401 23.8752787,24.4841634 23.8537705,24.5900527 L23.003541,28.9965471 L20.6979672,29 L19.9323279,24.5424313 Z" id="Fill-10" fill="#FFFFFF"></path>
    </g>
</svg>