<?xml version="1.0" encoding="UTF-8"?>
<svg width="44px" height="44px" viewBox="0 0 44 44" version="1.1" xmlns="http://www.w3.org/2000/svg" xmlns:xlink="http://www.w3.org/1999/xlink">
    <!-- Generator: Sketch 55 (78076) - https://sketchapp.com -->
    <title>icons/emptybikeavatar</title>
    <desc>Created with Sketch.</desc>
    <g id="icons/emptybikeavatar" stroke="none" stroke-width="1" fill="none" fill-rule="evenodd">
        <g id="Group-19">
            <path d="M43.9873792,21.8006605 C43.9873792,9.76739702 34.1405134,0.0125579841 21.9937286,0.0125579841 C9.8469438,0.0125579841 -3.34177215e-05,9.76739702 -3.34177215e-05,21.8006605 C-3.34177215e-05,33.8339239 9.8469438,43.588763 21.9937286,43.588763 C34.1405134,43.588763 43.9873792,33.8339239 43.9873792,21.8006605" id="Background" fill="#000000"></path>
            <g id="Group" transform="translate(4.000000, 11.000000)" fill="#FFFFFF">
                <path d="M28.1020408,9.22167532 C24.7691418,9.22167532 22.0576241,11.7540696 22.0576241,14.8667966 C22.0576241,17.9795237 24.7691418,20.5119179 28.1020408,20.5119179 C31.4349399,20.5119179 34.1464576,17.9795237 34.1464576,14.8667966 C34.1464576,11.7540696 31.4349399,9.22167532 28.1020408,9.22167532 M28.1020408,21.785575 C24.017133,21.785575 20.6938776,18.6817636 20.6938776,14.8667966 C20.6938776,11.0517387 24.017133,7.94801819 28.1020408,7.94801819 C32.1869487,7.94801819 35.5102041,11.0517387 35.5102041,14.8667966 C35.5102041,18.6817636 32.1869487,21.785575 28.1020408,21.785575" id="Fill-4"></path>
                <path d="M7.89795918,9.22167532 C4.56506013,9.22167532 1.85354243,11.7540696 1.85354243,14.8667966 C1.85354243,17.9795237 4.56506013,20.5119179 7.89795918,20.5119179 C11.2308582,20.5119179 13.9423759,17.9795237 13.9423759,14.8667966 C13.9423759,11.7540696 11.2308582,9.22167532 7.89795918,9.22167532 M7.89795918,21.785575 C3.81305134,21.785575 0.489795918,18.6817636 0.489795918,14.8667966 C0.489795918,11.0517387 3.81305134,7.94801819 7.89795918,7.94801819 C11.982867,7.94801819 15.3061224,11.0517387 15.3061224,14.8667966 C15.3061224,18.6817636 11.982867,21.785575 7.89795918,21.785575" id="Fill-6"></path>
                <path d="M8.61448958,12.9629517 L15.4675023,12.9629517 C15.9889438,12.9629517 16.4814058,12.7004206 16.7526821,12.2777117 L21.5226153,4.82002426 L13.4303873,4.82002426 C13.3890289,4.85289757 13.3540998,4.88367645 13.3360595,4.90398323 L8.61448958,12.9629517 Z M15.4675023,14.2378168 L8.50576795,14.2378168 C8.04756341,14.2378168 7.6352273,14.0140779 7.4029104,13.6391766 C7.1705935,13.2643662 7.16483596,12.8137014 7.38746099,12.4336095 L12.1704447,4.26991999 C12.3359741,3.98726419 12.6886237,3.74422027 12.8325623,3.65279423 C12.9430112,3.58258559 13.0730357,3.54515919 13.2061309,3.54515919 L22.7160583,3.54515919 C22.9586428,3.54515919 23.1823234,3.66927641 23.3014086,3.86988554 C23.4203978,4.07058573 23.4161756,4.31645256 23.2901814,4.51323709 L17.9005444,12.9400041 C17.3866836,13.7408015 16.4545372,14.2378168 15.4675023,14.2378168 L15.4675023,14.2378168 Z" id="Fill-8"></path>
                <path d="M27.4385149,14.8667966 C27.1846024,14.8667966 26.942372,14.7165276 26.8320984,14.4631416 L22.772152,5.1336505 C22.622672,4.7900486 22.7727716,4.38712041 23.1074866,4.23358069 C23.4422901,4.08004097 23.8347085,4.23421665 23.9842771,4.57781855 L28.044135,13.9073097 C28.1937035,14.2509116 28.0435154,14.6538398 27.7088889,14.8073795 C27.6209178,14.8477177 27.5289641,14.8667966 27.4385149,14.8667966" id="Fill-10"></path>
                <polygon id="Fill-12" points="23.5785475 5.43209877 22.0408163 5.07483244 23.1969627 1.65821962 24.7346939 2.01548595"></polygon>
                <path d="M24.6779705,2.28719948 C24.610095,2.28719948 24.5411483,2.27907087 24.4726885,2.26206714 L21.8929318,1.61965792 C21.5058368,1.5232758 21.2837076,1.17780978 21.3968659,0.848020359 C21.5100242,0.518230942 21.9156219,0.328867451 22.3028142,0.425498404 L24.8825709,1.06782467 C25.2697633,1.16428974 25.4917951,1.50975577 25.3786368,1.83954518 C25.2854418,2.1109413 24.9940738,2.28719948 24.6779705,2.28719948" id="Fill-14"></path>
                <polygon id="Fill-16" points="12.6122449 4.80311891 13.9591837 4.80311891 13.9591837 1.54385965 12.6122449 1.54385965"></polygon>
                <path d="M15.9390225,2.28719948 L11.9793448,2.28719948 C11.585005,2.28719948 11.2653061,2.00558423 11.2653061,1.65821962 C11.2653061,1.31085501 11.585005,1.02923977 11.9793448,1.02923977 L15.9390225,1.02923977 C16.3333623,1.02923977 16.6530612,1.31085501 16.6530612,1.65821962 C16.6530612,2.00558423 16.3333623,2.28719948 15.9390225,2.28719948" id="Fill-18"></path>
            </g>
        </g>
    </g>
</svg>